:SAMPLES-PER-SECOND 30
:FRAME-RANGE 1-3358
:FULLY-SPECIFIED
:DEGREES
2519
root  38.8117 41.6677 45.3403 60.4427 -84.7938 -53.425
RightUpLeg  -2.9627 -5.46681 1.13137
RightLeg  15.5426 10.2038 3.65668
RightFoot  -13.1627 0.263413 21.9906
RightToes  -1.11029e-010 1.2921e-014 -6.02303e-014
Spine  -1.76946 0.341473 3.63889
Spine1  3.613 1.59585 -5.52916
HEad  13.5117 6.43887 -4.10389
LeftShoulder1  0.392588 1.26327 -12.3739
LeftArm  -14.2969 2.73639 -10.6626
LeftForeArm  -26.6866 3.13434 -5.2358
LeftHand  -0.0349656 4.46173 0.953112
RightShoulder  1.34508 4.0954 11.0352
RightArm  -33.3562 0.926256 17.4952
RightForeArm  55.1606 -4.94945 -1.63256
RightHand  -0.281402 -4.044 -23.6208
LeftUpLeg  -23.2309 6.11238 10.3201
LeftLeg  38.2789 -1.85972 -1.20171
LeftFoot  -4.66419 1.14764 -19.0436
LeftToes  -1.90334e-010 -8.83595e-011 4.99953e-011
2520
root  38.1717 40.7812 46.559 75.5562 -87.0114 -68.5626
RightUpLeg  -3.35394 -4.68782 0.105583
RightLeg  18.2369 7.63564 2.64932
RightFoot  -9.90901 -0.338787 21.4314
RightToes  -1.11029e-010 1.2921e-014 -6.02303e-014
Spine  -0.714806 0.359002 2.78436
Spine1  3.91102 1.71032 -6.06721
HEad  10.3839 6.13841 -4.827
LeftShoulder1  0.433223 1.04591 -12.3176
LeftArm  -14.4424 1.52912 -10.2852
LeftForeArm  -25.2618 3.0709 -5.34809
LeftHand  -0.0282846 3.58162 0.190375
RightShoulder  1.32591 4.43561 9.87451
RightArm  -34.5713 3.88733 16.1474
RightForeArm  55.7185 -4.82573 -2.24699
RightHand  -0.137855 -4.72854 -22.8454
LeftUpLeg  -26.5458 5.30548 11.9186
LeftLeg  37.3854 0.0955033 0.449405
LeftFoot  -8.82736 0.42262 -16.7601
LeftToes  -1.90334e-010 -8.83595e-011 4.99953e-011
2521
root  37.5837 39.3982 47.8153 90.3718 -88.7602 -83.376
RightUpLeg  -4.66426 -5.47296 -1.43479
RightLeg  24.629 4.39416 1.97566
RightFoot  -14.4455 0.0739287 6.34161
RightToes  -1.11029e-010 1.2921e-014 -6.02303e-014
Spine  1.09249 0.147487 1.89135
Spine1  3.67205 1.40037 -5.83158
HEad  6.16442 4.89179 -5.8103
LeftShoulder1  0.555606 0.344242 -11.8652
LeftArm  -14.078 0.298233 -10.1594
LeftForeArm  -23.9422 2.53321 -5.76371
LeftHand  -0.0278537 3.54998 0.567347
RightShoulder  1.23256 4.50831 8.35655
RightArm  -35.1745 5.83414 14.8741
RightForeArm  55.4252 -4.79085 -2.49975
RightHand  -0.0328792 -5.26094 -22.6831
LeftUpLeg  -30.7016 4.30928 13.8632
LeftLeg  36.8431 -2.20296 -1.40476
LeftFoot  -12.6225 -0.109258 -16.404
LeftToes  -1.90334e-010 -8.83595e-011 4.99953e-011
2522
root  37.1301 37.6039 49.0624 -121.338 -89.1349 127.798
RightUpLeg  -5.92676 -5.09681 -4.89228
RightLeg  32.2954 0.561965 0.138273
RightFoot  -26.4294 0.702115 6.65187
RightToes  -1.11029e-010 1.2921e-014 -6.02303e-014
Spine  4.32529 -0.0557828 0.534727
Spine1  3.14665 1.07649 -6.05023
HEad  1.08194 2.86519 -6.8597
LeftShoulder1  0.632497 -0.151759 -11.3485
LeftArm  -13.5252 -1.79017 -10.1153
LeftForeArm  -24.0014 1.69816 -6.31916
LeftHand  -0.0274908 3.32403 0.552557
RightShoulder  1.06102 4.22831 6.44212
RightArm  -35.02 6.49681 13.8298
RightForeArm  54.6659 -4.84188 -2.33965
RightHand  -0.0834821 -4.99353 -22.0236
LeftUpLeg  -35.0108 2.86076 15.6135
LeftLeg  36.9005 -4.75903 -3.46109
LeftFoot  -14.4304 -0.359924 -16.4409
LeftToes  -1.90334e-010 -8.83595e-011 4.99953e-011
2523
root  36.6304 35.8009 50.3303 -120.34 -88.2328 125.632
RightUpLeg  -6.54479 -3.79452 -8.47334
RightLeg  40.0058 0.937703 0.566548
RightFoot  -36.0883 1.49867 7.94735
RightToes  -1.11029e-010 1.2921e-014 -6.02303e-014
Spine  8.03744 -0.150117 -0.178003
Spine1  2.82204 0.733046 -5.98879
HEad  -4.1896 1.31364 -7.48503
LeftShoulder1  0.659704 -0.451162 -10.5345
LeftArm  -14.0303 -3.50791 -11.1633
LeftForeArm  -22.842 0.335924 -6.43133
LeftHand  -0.0322978 3.22345 0.721608
RightShoulder  0.915853 3.78758 5.10112
RightArm  -34.2634 6.23913 12.7206
RightForeArm  52.484 -4.99055 -1.85533
RightHand  -0.108305 -4.86104 -21.9449
LeftUpLeg  -38.6983 2.00573 18.1391
LeftLeg  37.9208 -7.66387 -5.99511
LeftFoot  -15.4345 -0.543404 -17.6577
LeftToes  -1.90334e-010 -8.83595e-011 4.99953e-011
2524
root  35.7473 34.5088 51.7123 -157.693 -89.5391 163.785
RightUpLeg  -7.45982 -3.29869 -9.6397
RightLeg  44.853 0.999023 0.756891
RightFoot  -40.7633 2.5127 10.6152
RightToes  -1.11029e-010 1.2921e-014 -6.02303e-014
Spine  7.87058 -0.509423 0.760997
Spine1  3.96998 0.00198348 -4.68449
HEad  -7.97597 0.557113 -7.12663
LeftShoulder1  0.725645 -0.902726 -10.183
LeftArm  -15.607 -4.83671 -12.7196
LeftForeArm  -22.4915 -1.40682 -6.0682
LeftHand  -0.034698 3.03599 0.93089
RightShoulder  0.908101 3.3653 5.88027
RightArm  -33.8838 5.35207 11.415
RightForeArm  50.9544 -5.06156 -1.69638
RightHand  -0.157334 -4.61694 -22.43
LeftUpLeg  -43.3917 2.46198 20.538
LeftLeg  39.8502 -9.85898 -8.34427
LeftFoot  -15.9953 -0.648439 -18.1682
LeftToes  -1.90334e-010 -8.83595e-011 4.99953e-011
2525
root  34.3873 33.9133 53.1554 21.8798 -89.1684 -14.8953
RightUpLeg  -4.83473 -5.12328 -12.5598
RightLeg  43.795 2.68331 2.45617
RightFoot  -42.2002 3.20651 12.6318
RightToes  -1.11029e-010 1.2921e-014 -6.02303e-014
Spine  6.5184 -0.994779 -0.628621
Spine1  5.08482 -1.24778 -2.20069
HEad  -8.28417 0.610622 -6.27497
LeftShoulder1  0.877361 -1.69366 -10.5271
LeftArm  -15.7603 -5.90978 -14.5179
LeftForeArm  -24.6564 -1.95318 -6.06541
LeftHand  -0.0302229 2.86221 0.696094
RightShoulder  0.958095 3.11175 7.3591
RightArm  -32.6531 3.41355 10.6946
RightForeArm  52.8923 -5.09761 -1.16805
RightHand  -0.15379 -4.62911 -22.229
LeftUpLeg  -45.5591 3.49102 18.5526
LeftLeg  41.5097 -10.0375 -9.0121
LeftFoot  -16.1393 -0.692584 -18.68
LeftToes  -1.90334e-010 -8.83595e-011 4.99953e-011
2526
root  32.64 33.8634 54.767 13.5536 -89.2137 -6.15942
RightUpLeg  -0.472864 -3.65237 -15.9344
RightLeg  39.8333 4.26878 3.53799
RightFoot  -39.457 3.88932 16.5212
RightToes  -1.11029e-010 1.2921e-014 -6.02303e-014
Spine  5.75187 -1.31789 -1.87596
Spine1  4.11806 -2.09333 -0.393296
HEad  -5.66133 1.48452 -4.79117
LeftShoulder1  0.924031 -1.95256 -10.5541
LeftArm  -14.4599 -7.13454 -16.0291
LeftForeArm  -24.1773 -1.11577 -6.65939
LeftHand  -0.0202717 2.781 0.236282
RightShoulder  1.03567 2.89216 9.35464
RightArm  -30.4971 0.515469 9.42402
RightForeArm  55.3038 -5.20287 -0.136114
RightHand  -0.142474 -4.69971 -22.6449
LeftUpLeg  -45.6249 2.46327 16.3209
LeftLeg  46.0556 -10.9208 -11.5029
LeftFoot  -16.2613 -0.821913 -21.1667
LeftToes  -1.90334e-010 -8.83595e-011 4.99953e-011
2527
root  30.9324 34.1008 56.211 165.289 -88.3601 -157.668
RightUpLeg  0.766679 3.86578 -16.8653
RightLeg  39.3649 3.54653 2.84705
RightFoot  -33.0516 4.38606 23.75
RightToes  -1.11029e-010 1.2921e-014 -6.02303e-014
Spine  5.25758 -1.19986 -2.40678
Spine1  3.56814 -2.07443 -0.400093
HEad  -3.78024 3.03837 -3.08017
LeftShoulder1  0.897307 -1.73849 -10.7935
LeftArm  -14.399 -7.61835 -16.0225
LeftForeArm  -21.5776 -0.792651 -6.82693
LeftHand  -0.0382786 3.03133 1.11326
RightShoulder  1.11177 2.60556 11.6893
RightArm  -28.3292 -1.69813 7.61588
RightForeArm  55.8403 -5.37709 0.981131
RightHand  -0.165978 -4.57917 -22.6409
LeftUpLeg  -44.2129 3.35948 14.2047
LeftLeg  49.6874 -9.50239 -11.3682
LeftFoot  -17.1238 -0.683194 -15.4696
LeftToes  -1.90334e-010 -8.83595e-011 4.99953e-011
